# xmcd
#
# Track frame offsets:
#	150
#	21744
#	39870
#	54525
#	75257
#	97487
#	121610
#	151117
#	170685
#	187400
#	209730
#	236830
#	253420
#	277687
#	296830
#	308410
#
# Disc length: 4232 seconds
#
# Revision: 1
# Processed by: cddbd v1.5.2PL0 Copyright (c) Steve Scherf et al.
# Submitted via: audiograbber 1.83.01
#
DISCID=e8108610
DTITLE=Various Artist - The Kings and Queens Of ACE Records
DYEAR=1997
DGENRE=Soul
TTITLE0=The Steelers - Delicious
TTITLE1=Lee Fields - Hard To Go Back After Loving You
TTITLE2=Lee Fields - Three Birds
TTITLE3=Ronnie Lovejoy - Bring It On
TTITLE4=Ronnie Lovejoy - Baby I Miss You
TTITLE5=Billy 'Soul' Bonds - I'm Going Public With My Love
TTITLE6=Billy 'Soul' Bonds - Baby I've Been Missing You
TTITLE7=X Parker - She's My Lollipop
TTITLE8=Bobby Jonz - Love Mission
TTITLE9=Pat Brown - I Got To Know
TTITLE10=Pat Brown - Bill Goes Both Ways Too
TTITLE11=Cynthia Walker - I Should Quit You Baby
TTITLE12=Cynthia Walker - I'm Bill's Wife
TTITLE13=Vernis Rucker - There's A Hurt
TTITLE14=Joe and Ann - Gee Baby
TTITLE15=Joe and Ann - Curiosity
EXTD=
EXTT0=
EXTT1=
EXTT2=
EXTT3=
EXTT4=
EXTT5=
EXTT6=
EXTT7=
EXTT8=
EXTT9=
EXTT10=
EXTT11=
EXTT12=
EXTT13=
EXTT14=
EXTT15=
PLAYORDER=
